<?xml version="1.0" standalone="no"?>
<!DOCTYPE svg PUBLIC "-//W3C//DTD SVG 20010904//EN"
 "http://www.w3.org/TR/2001/REC-SVG-20010904/DTD/svg10.dtd">
<svg version="1.0" xmlns="http://www.w3.org/2000/svg"
 width="512.000000pt" height="512.000000pt" viewBox="0 0 512.000000 512.000000"
 preserveAspectRatio="xMidYMid meet">
<metadata>
Created by potrace 1.11, written by Peter Selinger 2001-2013
</metadata>
<g transform="translate(0.000000,512.000000) scale(0.100000,-0.100000)"
fill="#000000" stroke="none">
<path d="M1460 4914 c-56 -26 -100 -80 -127 -157 -14 -42 -18 -81 -17 -197 1
-232 37 -330 133 -367 46 -17 80 -19 401 -13 122 2 230 -4 270 -15 24 -7 149
-23 230 -31 41 -3 77 -8 79 -10 2 -2 4 -220 4 -485 0 -422 2 -487 16 -527 l17
-47 -31 -15 c-43 -22 -65 -72 -65 -151 0 -81 15 -112 86 -187 l54 -56 -54 -54
c-63 -63 -82 -107 -85 -204 l-2 -67 47 -43 c26 -24 63 -59 81 -78 34 -34 34
-34 11 -43 -12 -4 -38 -20 -56 -34 -34 -26 -35 -26 -241 -28 -227 -2 -244 -6
-295 -65 -44 -52 -44 -47 51 -455 9 -38 18 -77 19 -85 1 -8 13 -64 28 -125 55
-226 59 -255 60 -428 1 -93 -2 -171 -6 -174 -5 -2 -5 -10 -1 -16 4 -7 8 -118
8 -247 0 -205 2 -241 18 -275 19 -43 65 -80 113 -93 16 -5 198 -8 405 -7 351
1 378 2 405 19 94 62 92 52 92 537 0 253 5 432 11 455 5 22 12 50 15 64 3 14
10 45 17 70 6 25 13 56 15 70 3 13 14 60 24 105 10 45 21 92 24 105 2 14 18
84 36 155 59 248 61 277 18 326 -50 56 -78 63 -265 64 l-173 0 0 83 0 83 -52
57 c-29 31 -58 61 -63 68 -6 6 -20 16 -33 23 -30 16 -28 28 9 46 41 22 77 54
99 91 23 37 44 127 36 157 -5 22 -79 103 -149 164 l-37 32 19 43 c34 75 73
221 85 318 21 167 27 562 13 763 l-7 97 37 1 c21 0 52 3 68 5 17 2 66 9 110
15 44 5 91 12 105 14 92 14 150 17 265 15 337 -6 367 -4 412 18 89 46 116 128
117 357 1 170 -4 217 -28 262 -22 44 -74 91 -114 105 -59 21 -221 16 -345 -10
-60 -13 -116 -24 -125 -24 -17 -1 -142 8 -237 18 -134 13 -205 16 -390 19
-110 2 -227 0 -260 -5 -33 -4 -82 -11 -110 -15 -27 -3 -63 -8 -80 -11 -101
-14 -215 -14 -285 0 -172 37 -244 47 -315 45 -44 -1 -81 -9 -115 -25z m711
-3041 c9 -25 -15 -63 -40 -63 -24 0 -49 30 -45 55 7 46 69 52 85 8z m821 -136
c21 -33 -15 -82 -51 -70 -38 13 -45 46 -18 81 12 15 57 8 69 -11z m-249 -358
c15 -24 1 -49 -27 -49 -19 0 -27 7 -32 26 -11 42 36 59 59 23z m-381 -122 c13
-20 9 -36 -12 -57 -21 -21 -46 -18 -66 9 -12 16 -9 36 9 59 12 15 57 8 69 -11z
m608 -67 c0 -16 -7 -30 -16 -34 -22 -9 -57 12 -50 31 3 8 6 18 6 23 0 10 30
18 48 12 6 -2 12 -17 12 -32z m-372 -453 c19 -22 8 -52 -21 -55 -18 -2 -27 2
-32 18 -12 37 29 66 53 37z m-214 -233 c21 -20 20 -43 -1 -66 -20 -22 -31 -23
-55 -1 -22 20 -23 41 -1 65 20 22 37 23 57 2z m434 -86 c30 -30 -4 -77 -41
-57 -29 17 -15 69 18 69 6 0 16 -5 23 -12z"/>
</g>
</svg>
